<?xml version="1.0" encoding="UTF-8" standalone="no"?>
<svg
   xmlns:dc="http://purl.org/dc/elements/1.1/"
   xmlns:cc="http://creativecommons.org/ns#"
   xmlns:rdf="http://www.w3.org/1999/02/22-rdf-syntax-ns#"
   xmlns:svg="http://www.w3.org/2000/svg"
   xmlns="http://www.w3.org/2000/svg"
   width="45.705639mm"
   height="13.040533mm"
   viewBox="0 0 161.94912 46.206613"
   id="svg2"
   version="1.1">
  <defs
     id="defs4" />
  <metadata
     id="metadata7">
    <rdf:RDF>
      <cc:Work
         rdf:about="">
        <dc:format>image/svg+xml</dc:format>
        <dc:type
           rdf:resource="http://purl.org/dc/dcmitype/StillImage" />
        <dc:title></dc:title>
      </cc:Work>
    </rdf:RDF>
  </metadata>
  <g
     id="layer1"
     transform="translate(-240.15384,-337.73891)">
    <g
       id="flowRoot3336"
       style="font-style:normal;font-weight:normal;font-size:40px;line-height:125%;font-family:sans-serif;letter-spacing:0px;word-spacing:0px;fill:#000000;fill-opacity:1;stroke:none;stroke-width:1px;stroke-linecap:butt;stroke-linejoin:miter;stroke-opacity:1" />
    <g
       id="text3344"
       style="font-style:normal;font-weight:normal;font-size:40px;line-height:125%;font-family:sans-serif;letter-spacing:0px;word-spacing:0px;fill:#000000;fill-opacity:1;stroke:none;stroke-width:1px;stroke-linecap:butt;stroke-linejoin:miter;stroke-opacity:1">
      <path
         id="path4150"
         style="font-style:normal;font-variant:normal;font-weight:600;font-stretch:normal;font-family:'Josefin Sans';-inkscape-font-specification:'Josefin Sans Semi-Bold';fill:#000000"
         d="m 246.69715,348.28221 3.4,0 0,7.4 4.48,0 0,3.04 -4.48,0 0,13.64 -3.4,0 0,-13.64 -3,0 0,-3.04 3,0 0,-7.4 z" />
      <path
         id="path4152"
         style="font-style:normal;font-variant:normal;font-weight:600;font-stretch:normal;font-family:'Josefin Sans';-inkscape-font-specification:'Josefin Sans Semi-Bold';fill:#000000"
         d="m 255.89402,364.16221 q 0,-1.84 0.68,-3.44 0.72,-1.64 1.92,-2.84 1.2,-1.24 2.76,-1.96 1.6,-0.72 3.4,-0.72 1.2,0 2.2,0.32 1,0.28 1.72,0.72 0.72,0.44 1.16,0.92 0.44,0.48 0.6,0.84 l 0.16,-2.36 3.28,0 0,16.72 -3.44,0 0,-2.12 q -0.2,0.32 -0.64,0.76 -0.44,0.44 -1.16,0.84 -0.68,0.36 -1.64,0.64 -0.96,0.28 -2.2,0.28 -1.92,0 -3.56,-0.68 -1.6,-0.72 -2.76,-1.88 -1.16,-1.2 -1.84,-2.76 -0.64,-1.56 -0.64,-3.28 z m 3.44,-0.2 q 0,1.16 0.4,2.16 0.44,1 1.16,1.72 0.72,0.72 1.72,1.16 1,0.4 2.2,0.4 1.2,0 2.2,-0.4 1.04,-0.44 1.76,-1.16 0.76,-0.76 1.16,-1.72 0.4,-1 0.4,-2.16 0,-1.16 -0.4,-2.12 -0.4,-1 -1.16,-1.72 -0.72,-0.72 -1.76,-1.12 -1,-0.44 -2.2,-0.44 -1.2,0 -2.2,0.44 -1,0.4 -1.72,1.12 -0.72,0.72 -1.16,1.72 -0.4,0.96 -0.4,2.12 z" />
      <path
         id="path4154"
         style="font-style:normal;font-variant:normal;font-weight:600;font-stretch:normal;font-family:'Josefin Sans';-inkscape-font-specification:'Josefin Sans Semi-Bold';fill:#000000"
         d="m 281.9784,372.36221 -3.4,0 0,-31.08 3.4,0 0,31.08 z" />
      <path
         id="path4156"
         style="font-style:normal;font-variant:normal;font-weight:600;font-stretch:normal;font-family:'Josefin Sans';-inkscape-font-specification:'Josefin Sans Semi-Bold';fill:#000000"
         d="m 298.69965,355.20221 2.04,2.04 q -1.52,1.4 -2.92,2.72 -1.36,1.32 -2.88,2.76 1.8,2.4 3.52,4.84 1.72,2.4 3.48,4.8 l -3.92,0 q -1.36,-1.88 -2.76,-3.68 -1.36,-1.84 -2.72,-3.72 l -2.32,2.12 0,5.28 -3.4,0 0,-31.08 3.4,0 0,21.8 q 2.24,-2.04 4.28,-3.92 2.04,-1.92 4.2,-3.96 z" />
      <path
         id="path4158"
         style="font-style:normal;font-variant:normal;font-weight:600;font-stretch:normal;font-family:'Josefin Sans';-inkscape-font-specification:'Josefin Sans Semi-Bold';fill:#000000"
         d="m 302.61277,364.16221 q 0,-1.84 0.68,-3.44 0.72,-1.64 1.92,-2.84 1.2,-1.24 2.76,-1.96 1.6,-0.72 3.4,-0.72 1.2,0 2.2,0.32 1,0.28 1.72,0.72 0.72,0.44 1.16,0.92 0.44,0.48 0.6,0.84 l 0.16,-2.36 3.28,0 0,16.72 -3.44,0 0,-2.12 q -0.2,0.32 -0.64,0.76 -0.44,0.44 -1.16,0.84 -0.68,0.36 -1.64,0.64 -0.96,0.28 -2.2,0.28 -1.92,0 -3.56,-0.68 -1.6,-0.72 -2.76,-1.88 -1.16,-1.2 -1.84,-2.76 -0.64,-1.56 -0.64,-3.28 z m 3.44,-0.2 q 0,1.16 0.4,2.16 0.44,1 1.16,1.72 0.72,0.72 1.72,1.16 1,0.4 2.2,0.4 1.2,0 2.2,-0.4 1.04,-0.44 1.76,-1.16 0.76,-0.76 1.16,-1.72 0.4,-1 0.4,-2.16 0,-1.16 -0.4,-2.12 -0.4,-1 -1.16,-1.72 -0.72,-0.72 -1.76,-1.12 -1,-0.44 -2.2,-0.44 -1.2,0 -2.2,0.44 -1,0.4 -1.72,1.12 -0.72,0.72 -1.16,1.72 -0.4,0.96 -0.4,2.12 z" />
      <path
         id="path4160"
         style="font-style:normal;font-variant:normal;font-weight:600;font-stretch:normal;font-family:'Josefin Sans';-inkscape-font-specification:'Josefin Sans Semi-Bold';fill:#000000"
         d="m 339.41715,363.96221 q 0,-1.16 -0.36,-2.12 -0.36,-1 -1.04,-1.72 -0.68,-0.72 -1.64,-1.12 -0.96,-0.44 -2.16,-0.44 -1.2,0 -2.24,0.44 -1,0.4 -1.72,1.12 -0.72,0.72 -1.16,1.72 -0.4,0.96 -0.4,2.12 0,1.16 0.4,2.16 0.44,1 1.16,1.72 0.72,0.72 1.72,1.16 1.04,0.4 2.24,0.4 1.2,0 2.16,-0.4 0.96,-0.44 1.64,-1.16 0.68,-0.76 1.04,-1.72 0.36,-1 0.36,-2.16 z m 3.72,0.08 q 0,1.88 -0.64,3.48 -0.64,1.6 -1.8,2.76 -1.16,1.16 -2.8,1.84 -1.6,0.64 -3.52,0.64 -1,0 -1.92,-0.24 -0.88,-0.2 -1.64,-0.56 -0.76,-0.4 -1.32,-0.84 -0.56,-0.48 -0.84,-0.96 0,0.2 0,0.44 0.04,0.2 0.04,0.4 l 0,9.4 -3.44,0 0,-24.76 3.32,0 q 0,0.48 0.04,1.2 0.08,0.68 0.08,1.24 0.32,-0.48 0.84,-0.96 0.56,-0.52 1.28,-0.92 0.76,-0.44 1.68,-0.72 0.92,-0.28 2.04,-0.28 1.92,0 3.48,0.64 1.6,0.6 2.72,1.76 1.16,1.12 1.76,2.76 0.64,1.64 0.64,3.68 z" />
      <path
         id="path4162"
         style="font-style:normal;font-variant:normal;font-weight:600;font-stretch:normal;font-family:'Josefin Sans';-inkscape-font-specification:'Josefin Sans Semi-Bold';fill:#000000"
         d="m 360.97965,363.96221 q 0,-1.16 -0.36,-2.12 -0.36,-1 -1.04,-1.72 -0.68,-0.72 -1.64,-1.12 -0.96,-0.44 -2.16,-0.44 -1.2,0 -2.24,0.44 -1,0.4 -1.72,1.12 -0.72,0.72 -1.16,1.72 -0.4,0.96 -0.4,2.12 0,1.16 0.4,2.16 0.44,1 1.16,1.72 0.72,0.72 1.72,1.16 1.04,0.4 2.24,0.4 1.2,0 2.16,-0.4 0.96,-0.44 1.64,-1.16 0.68,-0.76 1.04,-1.72 0.36,-1 0.36,-2.16 z m 3.72,0.08 q 0,1.88 -0.64,3.48 -0.64,1.6 -1.8,2.76 -1.16,1.16 -2.8,1.84 -1.6,0.64 -3.52,0.64 -1,0 -1.92,-0.24 -0.88,-0.2 -1.64,-0.56 -0.76,-0.4 -1.32,-0.84 -0.56,-0.48 -0.84,-0.96 0,0.2 0,0.44 0.04,0.2 0.04,0.4 l 0,9.4 -3.44,0 0,-24.76 3.32,0 q 0,0.48 0.04,1.2 0.08,0.68 0.08,1.24 0.32,-0.48 0.84,-0.96 0.56,-0.52 1.28,-0.92 0.76,-0.44 1.68,-0.72 0.92,-0.28 2.04,-0.28 1.92,0 3.48,0.64 1.6,0.6 2.72,1.76 1.16,1.12 1.76,2.76 0.64,1.64 0.64,3.68 z" />
      <path
         id="path4164"
         style="font-style:normal;font-variant:normal;font-weight:600;font-stretch:normal;font-family:'Josefin Sans';-inkscape-font-specification:'Josefin Sans Semi-Bold';fill:#000000"
         d="m 371.82215,372.36221 -3.4,0 0,-31.08 3.4,0 0,31.08 z" />
      <path
         id="path4166"
         style="font-style:normal;font-variant:normal;font-weight:600;font-stretch:normal;font-family:'Josefin Sans';-inkscape-font-specification:'Josefin Sans Semi-Bold';fill:#000000"
         d="m 381.2634,380.40221 -3.44,0 q 0.56,-1.16 1.04,-2.24 0.52,-1.04 1,-2.16 0.52,-1.08 1.04,-2.28 0.52,-1.16 1.16,-2.52 -0.92,-1.8 -1.88,-3.76 -0.96,-2 -1.92,-4 -0.96,-2 -1.92,-4 -0.92,-2 -1.84,-3.8 l 3.72,0 q 1.44,2.84 2.36,4.8 0.96,1.96 1.56,3.4 0.64,1.4 1,2.4 0.4,1 0.68,1.84 0.32,-0.84 0.68,-1.84 0.4,-1 1,-2.4 0.64,-1.44 1.56,-3.4 0.96,-1.96 2.4,-4.8 l 3.72,0 -11.92,24.76 z" />
      <path
         id="path4168"
         style="font-style:normal;font-variant:normal;font-weight:600;font-stretch:normal;font-family:'Josefin Sans';-inkscape-font-specification:'Josefin Sans Semi-Bold';fill:#000000"
         d="m 394.07965,370.12221 q 0,-0.96 0.68,-1.6 0.72,-0.68 1.6,-0.68 0.8,0 1.48,0.68 0.72,0.64 0.72,1.6 0,1.04 -0.72,1.64 -0.68,0.6 -1.48,0.6 -0.88,0 -1.6,-0.6 -0.68,-0.6 -0.68,-1.64 z" />
    </g>
  </g>
</svg>
